<?xml version="1.0" standalone="no"?>
<!DOCTYPE svg PUBLIC "-//W3C//DTD SVG 20010904//EN"
 "http://www.w3.org/TR/2001/REC-SVG-20010904/DTD/svg10.dtd">
<svg version="1.0" xmlns="http://www.w3.org/2000/svg"
 width="640.000000pt" height="640.000000pt" viewBox="0 0 640.000000 640.000000"
 preserveAspectRatio="xMidYMid meet">
<metadata>
Created by potrace 1.14, written by Peter Selinger 2001-2017
</metadata>
<g transform="translate(0.000000,640.000000) scale(0.100000,-0.100000)"
fill="#000000" stroke="none">
<path d="M4116 6068 c-12 -16 -18 -19 -22 -10 -8 17 -27 15 -21 -2 4 -11 -7
-14 -52 -14 -32 0 -68 -5 -79 -11 -11 -6 -35 -11 -52 -11 -17 0 -52 -5 -77
-12 l-46 -11 23 -17 c19 -14 22 -23 16 -53 -6 -30 -14 -40 -51 -58 -25 -13
-45 -26 -45 -31 0 -4 -11 -8 -25 -8 -14 0 -34 -9 -45 -20 -11 -11 -20 -17 -20
-14 0 4 -9 -5 -20 -19 -24 -30 -24 -31 -4 -51 23 -24 100 -21 113 3 6 10 26
22 44 25 33 6 80 48 102 91 18 34 40 24 43 -20 2 -22 7 -44 12 -50 10 -12 -36
-253 -52 -272 -6 -7 -19 -13 -28 -13 -29 0 -50 -11 -50 -26 0 -7 -8 -18 -19
-23 -23 -13 -37 -77 -21 -96 8 -10 8 -19 0 -34 -12 -24 -15 -25 -41 -11 -15 9
-17 15 -9 30 13 24 13 90 0 90 -5 0 -10 11 -10 25 0 14 -8 29 -20 35 -11 6
-20 21 -20 35 0 33 -59 64 -76 40 -6 -8 -19 -15 -28 -15 -9 0 -19 -8 -23 -17
-13 -38 -25 -45 -40 -23 -20 28 -76 24 -82 -5 -2 -11 -9 -24 -17 -28 -8 -5
-13 -25 -12 -54 0 -34 -4 -51 -18 -63 -11 -9 -24 -25 -30 -35 -17 -31 -37 -24
-46 15 -9 45 0 107 20 126 13 13 12 16 -7 21 -11 3 -21 10 -21 17 -1 6 -9 -5
-18 -24 -23 -48 -55 -52 -72 -9 -8 17 -31 54 -52 80 -46 59 -83 67 -99 20 -7
-21 -20 -31 -49 -40 -47 -14 -58 -41 -42 -104 23 -87 41 -223 42 -307 0 -62
21 -206 35 -241 4 -10 10 -93 15 -185 5 -93 14 -207 20 -254 6 -47 13 -161 15
-255 4 -144 17 -270 41 -385 14 -66 26 -174 29 -255 1 -49 8 -114 14 -144 6
-29 11 -80 11 -113 0 -37 4 -57 10 -53 6 4 10 -14 9 -47 0 -40 -2 -48 -9 -32
-5 12 -13 25 -18 28 -6 3 -13 42 -17 87 -4 44 -10 77 -14 74 -6 -7 -29 132
-36 218 -2 26 -9 55 -16 63 -7 9 -13 51 -15 104 -1 49 -5 117 -8 152 -4 35
-10 146 -15 248 -7 128 -15 200 -26 230 -12 34 -19 101 -24 270 -6 167 -12
235 -24 265 -12 29 -16 34 -17 18 0 -13 -6 -23 -13 -23 -20 0 -37 43 -44 111
-4 40 -10 59 -19 59 -8 0 -15 8 -15 18 -1 9 -7 -5 -14 -33 l-13 -50 0 93 c1
60 -3 97 -11 105 -9 9 -10 -5 -5 -61 9 -98 -18 -93 -40 8 -3 14 -12 34 -19 45
-14 19 -16 18 -43 -15 -46 -54 -69 -141 -43 -167 16 -16 13 -143 -5 -195 -9
-29 -15 -80 -14 -139 0 -95 0 -197 -1 -256 -1 -18 -4 -33 -9 -33 -9 1 -48 30
-39 30 4 0 -9 24 -30 53 -21 28 -46 66 -55 84 -22 38 -23 101 -3 123 19 21 22
199 5 245 -10 27 -12 28 -22 11 -6 -10 -11 -78 -12 -151 -1 -115 -3 -132 -15
-122 -12 10 -13 9 -6 -2 5 -9 4 -12 -3 -7 -6 4 -17 25 -24 47 -8 27 -21 45
-39 55 -15 8 -45 40 -65 71 -47 73 -71 93 -98 83 -14 -5 -25 -2 -33 9 -11 14
-12 12 -13 -13 0 -39 -20 -107 -38 -128 -19 -22 -8 -115 20 -177 15 -32 17
-46 8 -51 -9 -5 -7 -11 6 -21 21 -15 52 -66 89 -144 13 -27 50 -76 83 -107 86
-83 101 -131 46 -142 -10 -3 -26 -7 -35 -11 -10 -3 -20 -1 -24 4 -3 6 -22 18
-41 26 -33 14 -38 24 -35 72 1 11 -3 24 -8 28 -6 3 -11 19 -11 35 0 36 -29
112 -47 123 -7 4 -13 19 -13 32 0 14 -5 25 -10 25 -6 0 -24 15 -40 33 -21 23
-29 42 -30 70 0 27 -5 39 -17 44 -10 3 -26 15 -36 27 -18 21 -18 20 -14 -29 5
-58 39 -154 60 -170 7 -5 19 -27 26 -47 7 -20 18 -41 25 -47 8 -6 16 -29 20
-52 5 -29 12 -42 30 -49 14 -5 25 -19 29 -36 6 -33 -2 -94 -13 -94 -4 0 -23
-16 -43 -35 -35 -34 -38 -35 -60 -20 -31 20 -79 80 -106 133 -27 53 -46 56
-37 5 3 -21 6 -53 6 -71 0 -21 9 -42 27 -62 16 -16 48 -52 73 -80 25 -28 61
-69 81 -91 23 -26 39 -55 43 -79 3 -21 13 -46 22 -55 15 -15 15 -19 -2 -51
-10 -19 -26 -34 -36 -34 -10 0 -18 -4 -18 -9 0 -5 17 -8 38 -6 36 3 39 1 50
-29 17 -47 15 -96 -7 -142 -24 -50 -55 -143 -81 -238 -24 -91 -24 -83 0 -89
17 -4 20 -14 20 -57 0 -36 4 -50 12 -48 7 3 20 -5 29 -16 25 -30 8 -56 -36
-56 -19 0 -35 -4 -35 -9 0 -5 -9 -13 -20 -16 -15 -5 -20 -15 -20 -45 0 -65 60
-103 175 -114 36 -3 40 -6 43 -32 5 -46 17 -48 75 -15 30 17 61 31 70 31 22 0
30 -34 22 -88 -9 -59 -21 -82 -43 -82 -10 0 -28 -9 -41 -21 -18 -17 -27 -19
-50 -11 -34 12 -81 -10 -81 -38 0 -10 -3 -25 -6 -33 -3 -8 2 -21 10 -30 9 -9
16 -18 16 -21 0 -17 56 -66 82 -71 23 -5 28 -11 22 -23 -17 -37 -15 -126 3
-160 16 -29 31 -37 113 -66 93 -32 95 -33 118 -79 20 -41 21 -51 10 -85 -13
-43 -7 -41 -245 -87 -40 -8 -82 -20 -95 -26 -13 -7 -29 -15 -36 -18 -7 -3 -23
-22 -34 -43 -20 -34 -20 -40 -7 -97 l13 -60 14 30 c19 38 34 33 58 -19 1 -2
13 8 27 22 29 29 67 35 67 11 0 -9 -12 -34 -27 -56 -19 -29 -27 -53 -26 -80 2
-28 -2 -37 -12 -33 -7 3 -16 16 -19 30 -4 13 -10 24 -15 24 -5 0 -14 20 -21
45 -7 25 -17 45 -21 45 -13 0 -11 -17 4 -40 10 -17 8 -27 -12 -63 -80 -139
-109 -223 -115 -331 -5 -94 13 -185 50 -255 33 -64 28 -72 -64 -87 -166 -28
-264 -64 -359 -133 -23 -17 -57 -37 -77 -45 -19 -8 -39 -24 -46 -35 -6 -12
-17 -21 -24 -21 -8 0 -20 -7 -27 -16 -7 -9 -40 -33 -74 -55 -69 -44 -101 -67
-245 -180 l-105 -83 -82 -4 c-86 -5 -91 -2 -84 40 0 4 3 90 7 190 3 101 10
197 15 214 5 16 11 50 14 75 2 24 9 64 15 89 6 25 13 65 16 90 2 25 9 77 14
115 6 39 12 93 14 120 4 43 10 81 32 182 3 17 1 21 -11 17 -8 -4 -15 -12 -15
-19 0 -7 -6 -17 -13 -23 -11 -9 -12 1 -5 56 4 37 16 144 27 237 11 94 25 224
31 290 13 142 54 358 69 363 6 2 11 17 11 33 0 16 4 29 9 29 12 0 24 -67 14
-83 -9 -14 -11 -167 -2 -167 8 0 28 128 39 245 5 55 13 112 19 126 5 15 10 52
10 84 0 32 4 69 10 84 8 23 30 204 47 391 7 79 36 137 74 145 15 3 69 -5 124
-20 127 -32 172 -33 197 -1 22 28 53 35 167 37 129 3 123 -12 123 269 -1 243
-9 356 -33 425 l-13 40 -122 2 c-133 1 -163 7 -163 29 0 17 -30 18 -119 3 -35
-5 -68 -6 -72 -2 -5 5 -13 61 -20 126 -8 73 -17 121 -26 128 -11 10 -80 12
-173 6 -23 -2 -25 2 -30 48 -3 28 -14 63 -24 78 -17 25 -24 28 -65 25 l-46 -3
-2 -65 c-5 -175 -14 -304 -23 -315 -6 -7 -7 -26 -4 -44 8 -40 -9 -41 -70 -3
-50 30 -73 72 -82 151 -12 99 -33 131 -84 131 -30 0 -35 -24 -17 -88 8 -31 21
-76 27 -100 6 -23 24 -56 40 -72 23 -24 28 -34 20 -48 -5 -9 -14 -35 -20 -57
-11 -47 -43 -85 -70 -85 -11 0 -29 17 -45 43 -17 26 -25 33 -22 20 3 -13 1
-26 -4 -29 -17 -10 -36 15 -31 41 6 35 -14 31 -27 -5 -5 -16 -15 -30 -21 -30
-6 0 -28 -14 -49 -31 -52 -41 -76 -28 -86 45 -13 100 -9 97 -79 90 -33 -3 -68
-12 -77 -20 -25 -22 -50 -17 -89 20 -39 38 -89 57 -91 35 0 -8 -2 -21 -4 -29
-2 -8 -7 -33 -10 -55 -4 -22 -16 -64 -27 -93 -16 -41 -18 -55 -9 -66 10 -11 8
-24 -8 -57 -11 -23 -18 -45 -16 -49 3 -5 1 -19 -4 -32 -7 -17 -10 -18 -10 -5
-1 9 -6 17 -11 17 -12 0 -11 -118 1 -126 5 -3 7 11 5 30 -6 42 9 58 17 18 3
-15 -1 -37 -9 -49 -8 -12 -14 -28 -14 -35 0 -7 -9 -29 -19 -49 -11 -20 -24
-55 -31 -77 -6 -23 -15 -42 -20 -42 -13 0 -13 -47 -1 -55 5 -3 12 7 14 22 l4
28 2 -27 c1 -20 5 -26 16 -22 9 4 15 0 15 -7 1 -10 4 -9 14 3 15 20 26 14 26
-16 0 -14 -10 -26 -30 -34 -23 -10 -30 -20 -30 -40 1 -36 23 -65 38 -50 8 8
15 8 26 -2 13 -10 17 -9 22 4 3 9 10 16 16 16 5 0 7 -4 3 -10 -3 -5 0 -18 7
-29 9 -15 9 -23 -2 -36 -10 -12 -26 -15 -79 -11 -36 3 -81 8 -98 12 l-33 7 1
-169 c1 -100 4 -159 9 -144 4 14 8 56 9 94 1 56 3 67 13 57 19 -18 12 -120
-11 -172 -20 -42 -21 -65 -21 -556 0 -336 3 -513 10 -513 6 0 10 -7 10 -15 0
-8 5 -15 10 -15 6 0 10 -7 10 -16 0 -12 7 -14 30 -9 26 6 30 3 36 -19 8 -32
-13 -86 -32 -86 -8 0 -19 -11 -23 -24 -5 -13 -19 -26 -30 -29 -21 -5 -21 -9
-21 -358 l0 -352 29 31 c16 16 37 35 47 40 15 9 18 23 16 101 -1 50 2 91 7 91
14 0 30 -55 37 -126 9 -90 -7 -119 -98 -176 -21 -13 -38 -31 -38 -40 0 -17 1
-17 19 0 36 32 50 42 73 52 34 15 62 33 71 47 4 7 17 17 27 23 17 9 22 7 31
-14 10 -22 19 -25 83 -29 39 -2 98 -11 131 -20 33 -8 88 -19 123 -23 34 -3 62
-9 62 -13 0 -3 19 -12 42 -19 35 -11 43 -11 56 1 34 34 -25 75 -123 84 -27 3
-56 11 -63 18 -11 10 -2 12 48 13 34 1 65 3 68 7 3 3 16 -5 28 -16 22 -20 24
-21 30 -4 15 37 -1 412 -18 433 -7 8 -14 131 -19 325 -5 172 -13 364 -19 427
-6 63 -12 161 -15 217 -4 85 -9 109 -30 147 -48 87 -24 126 90 146 39 6 109
25 157 42 75 26 89 34 102 62 15 32 53 70 175 176 103 90 110 97 117 124 7 31
34 35 34 5 0 -22 -23 -122 -46 -201 -8 -26 -14 -58 -14 -71 0 -14 -7 -38 -15
-53 -8 -16 -15 -55 -15 -86 0 -31 -5 -69 -11 -85 -6 -15 -15 -57 -20 -93 -10
-75 -23 -157 -39 -250 -6 -36 -17 -110 -25 -165 -7 -55 -18 -118 -25 -140 -24
-86 -30 -111 -30 -144 0 -18 -9 -70 -20 -115 -10 -44 -19 -108 -18 -142 0 -33
-4 -69 -9 -80 -6 -10 -16 -73 -23 -139 -7 -66 -19 -139 -26 -163 -8 -23 -14
-58 -14 -76 0 -18 -3 -36 -7 -40 -10 -10 -43 -118 -43 -143 0 -12 -5 -25 -10
-28 -6 -3 -10 -15 -10 -25 0 -10 -6 -23 -14 -27 -8 -5 -29 -62 -46 -128 -17
-66 -38 -141 -45 -167 -8 -27 -11 -48 -8 -48 3 0 -2 -9 -13 -21 -17 -19 -19
-19 -31 -3 -19 25 -16 58 8 110 28 58 33 202 9 214 -8 4 -30 15 -47 24 -18 9
-79 24 -135 32 -56 9 -110 20 -119 25 -10 5 -51 9 -93 9 -87 0 -106 5 -106 31
0 25 -12 24 -28 -1 -6 -11 -30 -29 -51 -40 -22 -11 -46 -28 -53 -37 -19 -26
-55 -44 -73 -37 -13 5 -15 -26 -15 -275 l0 -281 185 0 185 0 0 36 c0 24 4 34
12 31 7 -2 12 -18 12 -36 -2 -27 1 -31 23 -31 19 0 44 19 93 71 56 59 74 71
107 76 36 5 42 2 62 -25 26 -37 26 -48 2 -62 -25 -13 -51 -39 -51 -51 0 -5
172 -9 430 -9 400 0 455 3 419 26 -6 3 -9 15 -6 25 5 19 -63 165 -86 184 -7 6
-12 24 -12 40 0 17 -4 34 -10 38 -6 5 -3 6 8 3 11 -4 25 3 39 19 26 30 64 39
152 36 46 -2 66 1 62 8 -4 5 3 22 15 36 21 24 28 25 123 25 56 0 138 -5 183
-11 70 -10 84 -10 97 3 8 9 13 18 10 21 -3 2 6 7 20 11 25 6 26 12 13 87 -4
24 -58 76 -64 62 -6 -17 -23 -16 -23 1 0 8 7 17 16 20 8 3 13 10 10 15 -3 5 4
18 17 29 12 11 45 41 73 66 28 25 56 46 63 46 6 0 14 7 17 15 4 8 12 15 20 15
8 0 14 5 14 11 0 5 4 8 9 5 5 -3 12 1 15 10 3 8 22 22 41 30 19 8 35 19 35 24
0 6 7 10 15 10 8 0 14 6 12 13 -1 6 6 11 15 11 10 -1 15 2 12 7 -3 5 -1 9 4 9
5 0 29 18 53 40 42 38 69 50 69 32 0 -13 -34 -42 -49 -42 -7 0 -10 -4 -7 -8 3
-5 -8 -16 -25 -26 -16 -9 -29 -21 -29 -27 0 -5 -7 -9 -16 -9 -8 0 -12 -5 -9
-10 3 -6 2 -10 -3 -10 -14 0 -72 -62 -72 -76 0 -7 -9 -16 -20 -19 -11 -3 -20
-10 -20 -16 0 -5 -15 -15 -32 -23 -41 -17 -81 -63 -74 -83 5 -12 9 -13 21 -3
8 6 19 9 25 5 13 -8 170 35 170 46 0 4 18 27 40 51 39 41 41 42 55 24 8 -11
15 -30 15 -43 0 -20 -5 -23 -42 -23 -28 0 -38 -3 -29 -9 11 -7 11 -9 0 -14 -8
-3 0 -6 18 -6 17 -1 33 3 35 9 2 5 25 14 51 19 26 5 55 15 65 24 9 8 40 25 69
37 28 12 59 30 69 41 9 10 24 19 33 19 13 1 13 2 -2 11 -14 8 -23 7 -36 -5
-10 -9 -27 -16 -39 -16 -11 0 -24 -5 -27 -10 -11 -18 -43 -10 -63 15 -22 27
-62 34 -62 10 0 -17 -9 -19 -30 -5 -30 20 89 107 171 125 38 9 56 -6 64 -54 9
-57 32 -63 157 -45 57 9 104 16 104 17 1 1 5 12 8 25 6 16 3 22 -8 22 -9 0
-16 4 -16 9 0 4 -18 11 -41 14 -22 3 -43 8 -46 11 -13 12 -4 58 13 71 16 12
16 14 3 15 -9 0 -24 -9 -34 -20 -10 -11 -26 -20 -35 -20 -9 0 -25 -7 -36 -15
-20 -15 -74 -21 -74 -7 1 15 227 162 251 162 15 0 10 -47 -7 -64 -14 -15 -13
-16 8 -16 34 0 66 -26 83 -66 13 -31 18 -34 55 -34 28 0 45 -6 57 -20 10 -11
26 -20 35 -20 10 0 36 -11 58 -25 22 -14 46 -25 55 -25 14 0 16 7 19 54 1 20
26 36 26 16 0 -6 5 -8 10 -5 6 3 10 2 10 -3 0 -14 43 -23 51 -10 4 6 5 18 4
27 -2 9 -4 22 -4 29 -1 7 -5 10 -11 7 -5 -3 -10 1 -10 10 0 12 6 14 28 9 36
-9 42 -13 42 -28 0 -12 47 -44 53 -35 47 67 57 76 81 72 21 -4 25 -10 20 -28
-9 -37 39 -43 87 -11 47 32 79 34 79 6 0 -11 -8 -27 -19 -36 -10 -9 -37 -34
-60 -55 -22 -22 -50 -39 -60 -39 -11 0 -21 -3 -23 -7 -6 -16 -70 -43 -99 -43
-26 0 -29 3 -23 25 7 30 8 29 -63 9 -30 -9 -64 -14 -75 -11 -19 6 -35 1 -108
-31 -40 -18 -170 -19 -181 -1 -5 8 -22 8 -63 -2 -77 -17 -69 -35 26 -60 27 -6
60 -22 74 -34 l26 -22 -67 -5 c-36 -3 -69 -8 -72 -12 -12 -12 19 -34 57 -40
21 -3 42 -11 45 -17 4 -6 0 -30 -9 -53 -24 -62 0 -122 33 -82 19 23 175 21
215 -3 17 -10 42 -22 55 -26 14 -4 29 -11 35 -16 6 -5 23 -18 39 -30 28 -22
37 -42 13 -33 -23 9 -27 -12 -6 -34 24 -25 26 -36 5 -28 -8 3 -15 1 -15 -5 0
-7 -7 -8 -17 -4 -21 9 -34 8 -166 -5 -72 -7 -109 -16 -140 -34 -73 -41 -127
-48 -343 -41 -109 3 -221 10 -249 15 -27 5 -89 12 -137 15 -49 4 -90 11 -94
16 -3 5 -49 9 -102 10 -53 0 -122 4 -152 9 -32 4 -75 4 -102 -2 -45 -9 -48
-11 -42 -36 9 -36 13 -42 29 -42 7 0 39 -14 70 -30 32 -17 76 -33 99 -36 22
-3 75 -16 116 -29 41 -12 100 -28 130 -35 88 -19 177 -50 190 -66 11 -12 165
-14 1101 -14 719 0 1089 3 1089 10 0 6 5 10 11 10 5 0 7 -5 4 -10 -5 -7 30
-10 104 -9 120 1 118 0 113 61 -2 16 0 16 17 1 15 -12 17 -21 10 -40 -8 -23
-8 -23 71 -23 64 0 80 3 80 15 0 9 -10 16 -25 16 -14 1 -29 3 -35 4 -5 1 -16
3 -22 5 -7 1 1 6 19 11 18 5 35 18 38 30 7 20 19 18 21 -4 0 -7 4 -27 9 -44
l8 -33 608 0 609 0 0 1305 0 1304 -25 37 c-18 27 -25 50 -25 85 0 26 -5 70
-11 97 -10 51 -19 58 -101 91 -22 8 -28 17 -28 40 0 72 -39 119 -105 126 -59
7 -65 12 -71 56 -14 116 -35 211 -51 235 -24 38 -43 92 -43 129 0 48 -12 105
-20 100 -4 -3 -15 12 -24 33 -8 20 -26 63 -40 95 -13 32 -27 82 -31 110 -10
75 -59 224 -100 301 -19 37 -35 78 -35 92 0 13 -4 24 -9 24 -5 0 -12 13 -16
30 -3 16 -15 39 -25 52 -23 30 -86 218 -105 315 -4 18 -11 36 -16 39 -13 8
-30 49 -38 94 -4 19 -13 34 -19 32 -7 -1 -12 10 -12 28 0 17 -11 52 -24 78
-13 26 -31 71 -40 100 -10 28 -22 52 -27 52 -5 0 -18 18 -29 41 -12 22 -36 60
-55 85 -19 25 -35 51 -35 59 0 7 -8 19 -17 26 -9 8 -29 32 -45 54 -16 22 -56
69 -88 105 -32 36 -97 109 -144 162 -48 53 -106 114 -131 136 -25 22 -45 44
-45 51 0 6 -13 17 -30 26 -16 9 -30 20 -30 25 0 5 -18 19 -40 30 -21 11 -44
28 -49 38 -10 18 -135 84 -230 121 -57 22 -126 28 -136 11 -13 -21 -65 -7
-103 28 -17 16 -17 16 -36 -10z m-380 -262 c10 -26 -8 -45 -34 -35 -19 7 -21
12 -12 29 12 23 38 26 46 6z m-161 -435 c6 -27 -24 -103 -46 -117 -12 -7 -6
129 6 138 20 15 34 8 40 -21z m-1151 -1057 c10 -25 -1 -29 -14 -5 -6 12 -7 21
-1 21 5 0 12 -7 15 -16z m-14 -297 c0 8 9 7 30 -3 35 -18 41 -26 32 -41 -6 -9
-19 -9 -50 -1 -43 11 -46 15 -36 43 5 13 8 14 15 3 6 -8 9 -9 9 -1z m408 -175
c36 -16 92 -69 92 -87 0 -4 11 -20 25 -37 14 -16 25 -38 25 -49 0 -20 -31 -24
-164 -19 -69 2 -166 43 -174 72 -2 10 -8 18 -13 18 -5 0 -9 9 -9 20 0 11 5 20
10 20 6 0 15 12 21 27 6 15 15 33 21 40 16 19 119 16 166 -5z m-1644 -94 c-9
-29 -28 -42 -32 -22 -5 23 6 44 23 44 12 0 15 -6 9 -22z m4546 -43 c0 -8 -4
-17 -10 -20 -6 -4 -10 5 -10 20 0 15 4 24 10 20 6 -3 10 -12 10 -20z m-3287
-17 c21 -15 59 -27 108 -34 43 -6 85 -18 94 -25 71 -58 136 -158 133 -203 -5
-59 -96 -136 -160 -136 -11 0 -37 13 -57 29 -42 33 -67 96 -76 193 -4 31 -13
62 -21 69 -8 6 -14 28 -15 48 0 20 -3 30 -6 24 -6 -16 -23 -17 -23 -2 0 7 -7
17 -17 24 -9 7 -13 17 -9 23 10 16 13 15 49 -10z m3266 -132 c1 -57 -5 -40
-12 29 -3 37 -2 51 3 35 4 -14 8 -43 9 -64z m-2944 48 c12 -5 14 -9 4 -14 -14
-9 -39 -2 -39 11 0 11 12 11 35 3z m2939 -141 c-5 -5 -12 -12 -16 -18 -4 -6
-8 -2 -8 8 0 9 7 17 17 17 9 0 12 -3 7 -7z m-5519 -93 c3 -5 1 -10 -4 -10 -6
0 -11 5 -11 10 0 6 2 10 4 10 3 0 8 -4 11 -10z m215 -210 c0 -22 -4 -40 -10
-40 -5 0 -10 18 -10 40 0 22 5 40 10 40 6 0 10 -18 10 -40z m-135 -90 c3 -5 1
-10 -4 -10 -6 0 -11 5 -11 10 0 6 2 10 4 10 3 0 8 -4 11 -10z m4130 -294 c159
-2 215 -6 215 -15 0 -5 -11 -12 -25 -15 -14 -4 -23 -11 -20 -16 3 -6 -3 -10
-15 -10 -12 0 -36 -11 -54 -25 -38 -29 -61 -32 -70 -9 -4 10 -15 14 -31 12
-33 -4 -33 -22 0 -26 14 -2 25 -9 25 -15 0 -17 -128 -79 -136 -66 -4 7 -15 3
-28 -9 -11 -11 -48 -25 -81 -32 -87 -17 -89 -18 -100 -42 -8 -17 -18 -23 -44
-23 -20 0 -37 6 -41 15 -64 129 -64 128 -51 157 11 24 14 26 22 10 13 -23 29
-22 29 3 0 13 -7 20 -20 20 -13 0 -18 5 -14 15 4 10 20 15 48 15 22 1 52 7 66
15 37 21 71 19 77 -5 3 -11 16 -22 29 -25 13 -3 35 -7 47 -10 13 -2 32 1 42 8
16 13 16 16 2 44 -18 35 -12 47 18 37 11 -4 61 -8 110 -8z m155 -96 c0 -5 -4
-10 -10 -10 -5 0 -10 5 -10 10 0 6 5 10 10 10 6 0 10 -4 10 -10z m-119 -145
c9 -19 12 -39 8 -47 -6 -9 -9 -8 -14 5 -5 12 -12 14 -24 8 -22 -12 -43 1 -36
22 3 9 7 24 10 32 8 27 39 16 56 -20z m-81 -104 c0 -14 -60 -71 -73 -71 -7 0
-4 7 6 14 9 7 17 17 17 21 0 11 31 45 42 45 4 0 8 -4 8 -9z m-206 -47 c20 -8
21 -31 2 -50 -8 -7 -12 -23 -9 -34 4 -15 0 -20 -15 -20 -12 0 -24 5 -28 12 -5
7 -11 5 -21 -8 -12 -16 -15 -17 -23 -4 -8 13 -4 52 7 73 2 4 15 7 28 7 12 0
25 7 29 15 6 17 8 17 30 9z m-3556 -449 c0 -94 0 -98 -13 -65 -14 37 -20 192
-8 204 14 13 21 -36 21 -139z m-321 3 c-3 -7 -5 -2 -5 12 0 14 2 19 5 13 2 -7
2 -19 0 -25z m2058 -188 c-3 -6 -15 -15 -26 -20 -15 -9 -21 -7 -25 5 -10 24
14 47 37 34 11 -5 17 -14 14 -19z m-1957 -115 c-2 -14 -11 -20 -28 -20 -19 0
-26 6 -31 30 -11 51 -10 100 3 113 9 9 17 -1 35 -46 13 -31 22 -66 21 -77z
m212 -86 c-9 -21 -10 -19 -5 16 2 22 6 63 7 90 2 44 2 42 5 -16 2 -36 -1 -76
-7 -90z m3923 -14 c59 -3 122 -8 139 -12 l30 -6 -23 -13 c-13 -7 -32 -13 -42
-14 -19 0 -53 -17 -75 -37 -7 -7 -22 -13 -33 -13 -10 0 -19 -4 -19 -10 0 -5
-7 -10 -16 -10 -11 0 -7 9 15 29 40 38 39 51 -4 51 -19 0 -35 -4 -35 -10 0 -5
-8 -10 -19 -10 -10 0 -35 -13 -56 -30 -21 -16 -46 -30 -56 -30 -10 0 -22 -6
-26 -12 -18 -28 -72 -55 -145 -72 -43 -10 -78 -21 -78 -26 0 -4 -22 -17 -50
-28 -27 -12 -50 -26 -50 -31 0 -6 -11 -11 -24 -11 -13 0 -40 -13 -61 -30 -38
-30 -51 -34 -112 -30 -18 1 -35 -5 -40 -13 -4 -7 -16 -16 -25 -20 -9 -3 -18
-16 -20 -29 -4 -32 -32 -29 -36 4 -2 19 -8 25 -18 21 -8 -3 -14 -11 -14 -18 0
-7 -7 -15 -14 -18 -8 -3 -18 -22 -22 -43 -6 -35 -8 -36 -40 -31 -34 6 -50 18
-69 50 -5 10 -25 28 -44 39 l-34 22 6 -25 c3 -13 9 -34 12 -46 5 -17 3 -25
-11 -30 -12 -5 -25 3 -44 25 -29 35 -78 44 -100 17 -17 -21 -37 -19 -57 5 -10
11 -30 20 -45 20 -15 0 -30 5 -34 12 -11 17 40 56 84 64 41 7 103 59 96 79 -3
7 6 15 20 19 14 3 26 11 26 16 0 6 16 10 35 10 19 0 35 5 35 10 0 6 7 10 16
10 8 0 12 -4 9 -10 -4 -6 7 -10 25 -10 17 0 29 4 26 8 -2 4 32 14 76 20 44 7
87 20 95 28 8 8 23 14 34 14 11 0 27 4 37 9 9 5 37 14 62 21 25 7 53 16 62 21
10 5 26 9 35 9 10 0 36 9 58 19 73 36 180 67 265 77 30 3 57 8 59 10 3 2 32 2
65 -1 34 -2 110 -7 169 -10z m287 -30 c0 -8 -9 -15 -20 -15 -20 0 -26 11 -13
23 12 13 33 7 33 -8z m-104 -60 c38 -16 42 -38 8 -43 -23 -3 -77 35 -69 49 8
12 20 11 61 -6z m-4139 -57 c-2 -13 -4 -5 -4 17 -1 22 1 32 4 23 2 -10 2 -28
0 -40z m3893 13 c0 -18 -27 -37 -38 -26 -5 4 26 45 35 45 1 0 3 -9 3 -19z
m-60 -46 c-7 -8 -22 -15 -34 -15 -18 0 -17 2 9 19 34 21 44 19 25 -4z m-3940
-16 c0 -5 -8 -9 -18 -9 -10 0 -28 -9 -40 -21 -29 -27 -45 -21 -29 11 16 33 87
49 87 19z m4104 2 c17 -7 23 -15 19 -29 -4 -19 -23 -21 -55 -7 -21 8 -24 31
-5 38 6 3 13 6 14 6 1 1 13 -3 27 -8z m476 -77 c0 -8 -7 -14 -15 -14 -17 0
-18 2 -9 24 7 18 24 12 24 -10z m-4640 -244 c1 -92 5 -137 13 -142 8 -5 6 -8
-5 -8 -10 0 -18 1 -18 3 0 1 -2 94 -5 207 -3 146 -1 186 5 140 5 -36 10 -126
10 -200z m3981 187 c-1 -4 -3 -7 -6 -7 -40 0 -40 0 -25 10 16 10 32 9 31 -3z
m-4296 -97 c4 -55 3 -80 -3 -70 -14 22 -27 178 -14 165 6 -5 13 -48 17 -95z
m2195 -16 c0 -11 -9 -14 -32 -12 -37 3 -41 20 -6 29 28 7 38 3 38 -17z m840
16 c0 -5 -4 -10 -10 -10 -5 0 -10 5 -10 10 0 6 5 10 10 10 6 0 10 -4 10 -10z
m-696 -25 c0 -5 -12 -14 -27 -19 -30 -11 -55 4 -42 24 8 13 70 9 69 -5z m161
-35 c-3 -5 -11 -10 -16 -10 -6 0 -7 5 -4 10 3 6 11 10 16 10 6 0 7 -4 4 -10z
m2583 -207 c17 -23 -3 -31 -26 -10 -9 8 -33 17 -53 21 -38 7 -49 -3 -49 -43 0
-20 78 -44 115 -35 21 5 25 2 31 -31 8 -44 0 -54 -24 -32 -10 10 -21 17 -25
17 -3 0 -17 11 -31 25 -19 19 -35 25 -69 25 -40 0 -46 -3 -53 -27 -11 -40 -11
-42 -13 -50 0 -3 -10 2 -21 12 -11 10 -17 21 -15 25 6 10 -21 21 -29 13 -12
-12 -6 -33 9 -33 19 0 19 -9 -1 -31 -9 -10 -20 -33 -23 -51 -7 -32 -8 -31 -15
20 -5 34 -13 52 -22 52 -20 0 -17 15 9 45 15 18 38 30 69 35 33 7 58 20 84 46
36 35 41 36 89 30 31 -3 55 -12 63 -23z m-2660 -14 c-2 -6 -8 -10 -13 -10 -5
0 -11 4 -13 10 -2 6 4 11 13 11 9 0 15 -5 13 -11z m-2056 -23 c28 -21 11 -26
-91 -26 -64 0 -92 3 -85 10 12 12 100 16 132 6 17 -6 21 -4 16 8 -7 19 5 20
28 2z m4404 -204 c4 -9 6 -21 5 -26 -2 -9 2 -20 28 -76 4 -8 4 -26 1 -40 -6
-22 -9 -20 -22 25 -11 34 -20 49 -30 47 -9 -1 -21 5 -28 13 -10 12 -10 18 1
32 15 17 13 50 -3 70 -6 8 -5 20 3 35 12 21 12 21 24 -20 7 -23 16 -50 21 -60z
m134 27 c0 -17 -4 -28 -10 -24 -5 3 -10 17 -10 31 0 13 5 24 10 24 6 0 10 -14
10 -31z m45 -157 c9 -30 14 -61 12 -70 -2 -10 -9 1 -16 25 -6 23 -16 45 -21
48 -6 3 -10 23 -10 43 0 46 13 30 35 -46z m-102 6 c9 -29 21 -90 26 -136 6
-46 13 -87 16 -93 9 -13 33 -11 37 3 6 16 38 2 38 -17 0 -8 -7 -15 -15 -15 -8
0 -15 -5 -15 -11 0 -5 -4 -7 -10 -4 -6 4 -7 -5 -4 -23 8 -39 -11 -49 -25 -14
-12 30 -31 113 -35 152 -4 52 -18 126 -26 145 -13 31 -19 65 -11 65 4 0 15
-24 24 -52z m-23 -90 c0 -5 -4 -8 -10 -8 -5 0 -10 10 -10 23 0 18 2 19 10 7 5
-8 10 -18 10 -22z m-29 -16 c15 -15 31 -50 38 -77 6 -28 18 -74 26 -103 8 -30
16 -70 19 -90 3 -20 8 -48 12 -62 l6 -25 -16 23 c-20 25 -41 29 -50 7 -7 -18
-33 -20 -39 -2 -2 6 2 22 10 34 15 22 3 41 -17 28 -5 -3 -10 -1 -10 5 0 6 8
14 18 17 25 10 32 23 32 71 0 46 -23 60 -34 20 -3 -13 -18 -32 -32 -42 -24
-17 -29 -18 -51 -4 -34 20 -33 31 2 43 56 19 58 23 51 87 -7 72 -14 85 -30 62
-10 -13 -15 -14 -21 -4 -9 15 19 40 44 40 9 0 28 -12 42 -28z m197 -17 c7 -14
12 -35 12 -46 0 -31 -25 -2 -33 39 -8 38 5 42 21 7z m-463 -65 c3 -5 -1 -10
-10 -10 -9 0 -13 5 -10 10 3 6 8 10 10 10 2 0 7 -4 10 -10z m-4205 -10 c0 -5
-7 -10 -15 -10 -8 0 -15 5 -15 10 0 6 7 10 15 10 8 0 15 -4 15 -10z m4082 -87
c-6 -99 -20 -117 -20 -27 0 38 -1 74 -2 79 -4 18 0 25 13 25 11 0 13 -17 9
-77z m-3932 25 c19 -6 38 -12 42 -14 14 -9 -4 -33 -33 -43 -16 -5 -29 -14 -29
-20 0 -15 -65 -30 -108 -24 -33 4 -42 11 -56 41 -21 43 -14 51 50 58 27 4 53
10 59 15 5 5 16 7 25 3 8 -3 31 -11 50 -16z m4569 -37 c1 -35 -5 -22 -12 24
-5 28 -4 34 3 20 5 -11 9 -31 9 -44z m-4284 -31 c-10 -11 -20 -18 -23 -15 -7
6 18 35 31 35 5 0 2 -9 -8 -20z m4325 -22 c0 -18 -2 -20 -9 -8 -6 8 -7 18 -5
22 9 14 14 9 14 -14z"/>
<path d="M4073 2653 c-51 -56 -43 -100 11 -60 17 13 39 26 49 30 18 7 25 57 8
57 -5 0 -15 2 -23 4 -7 3 -28 -11 -45 -31z"/>
<path d="M4275 2650 c-3 -5 1 -10 9 -10 8 0 18 5 21 10 3 6 -1 10 -9 10 -8 0
-18 -4 -21 -10z"/>
<path d="M3500 1160 c0 -5 5 -10 11 -10 5 0 7 5 4 10 -3 6 -8 10 -11 10 -2 0
-4 -4 -4 -10z"/>
<path d="M3504 5942 c-6 -4 -16 -24 -23 -44 -22 -68 -155 -218 -193 -218 -11
0 -15 -5 -12 -15 5 -11 -1 -15 -20 -15 -14 0 -26 -4 -26 -8 0 -5 -11 -14 -25
-20 -14 -6 -25 -18 -25 -26 0 -18 57 -48 66 -35 3 5 14 9 25 9 11 0 35 16 55
35 19 19 39 35 44 35 6 0 18 16 27 35 21 44 35 45 32 2 -4 -42 6 -56 34 -50
31 8 57 33 57 54 0 10 5 21 11 25 7 4 9 24 6 51 -9 80 29 163 75 163 33 0 19
17 -19 24 -50 8 -76 7 -89 -2z"/>
<path d="M3190 5670 c0 -43 4 -47 26 -26 19 19 18 52 -2 60 -24 9 -24 9 -24
-34z"/>
<path d="M3590 5620 c-13 -8 -12 -11 5 -24 28 -21 35 -20 35 9 0 26 -14 31
-40 15z"/>
<path d="M3307 5541 c-3 -14 0 -21 9 -21 16 0 18 9 5 28 -6 10 -10 9 -14 -7z"/>
<path d="M2050 5292 c0 -6 -6 -12 -14 -12 -8 0 -18 -9 -21 -20 -3 -11 -10 -20
-15 -20 -4 0 -20 -20 -34 -45 -28 -47 -97 -121 -141 -149 -14 -9 -25 -23 -25
-31 0 -8 -6 -18 -12 -22 -14 -9 -27 -27 -58 -85 -16 -30 -20 -56 -20 -138 0
-55 3 -100 6 -100 4 0 13 8 20 18 10 13 17 15 31 6 10 -5 34 -10 53 -10 35 1
35 2 46 59 11 54 36 97 56 97 4 0 8 -8 8 -18 0 -11 9 -27 20 -37 19 -17 20
-17 26 1 3 11 12 35 19 54 8 19 19 52 25 72 6 21 16 40 21 44 6 3 7 24 3 50
-5 36 -3 45 10 50 11 4 22 -1 31 -12 8 -11 15 -14 15 -8 0 7 9 14 20 17 23 6
28 51 7 64 -8 4 -19 39 -25 77 -7 45 -18 77 -32 90 -11 12 -20 15 -20 8z"/>
<path d="M2777 5283 c-13 -13 -7 -53 8 -53 10 0 15 10 15 30 0 29 -9 38 -23
23z"/>
<path d="M527 4253 c-7 -11 20 -112 34 -130 21 -24 28 0 17 54 -10 49 -40 94
-51 76z"/>
<path d="M200 4211 c0 -36 52 -112 67 -97 9 8 -27 83 -48 102 -18 16 -19 16
-19 -5z"/>
<path d="M116 3485 c-3 -8 -1 -15 4 -15 6 0 10 7 10 15 0 8 -2 15 -4 15 -2 0
-6 -7 -10 -15z"/>
<path d="M96 3443 c-6 -14 -5 -15 5 -6 7 7 10 15 7 18 -3 3 -9 -2 -12 -12z"/>
<path d="M1221 1996 c-1 -37 2 -47 10 -39 8 8 8 22 1 50 l-10 38 -1 -49z"/>
<path d="M1204 1925 c0 -49 1 -71 3 -48 2 23 2 64 0 90 -2 26 -3 8 -3 -42z"/>
<path d="M1178 1790 c-7 -24 -3 -38 8 -28 3 4 4 17 2 30 l-3 23 -7 -25z"/>
<path d="M1172 1725 c0 -16 2 -22 5 -12 2 9 2 23 0 30 -3 6 -5 -1 -5 -18z"/>
<path d="M1146 1652 c-3 -5 -8 -40 -11 -78 -8 -87 10 -67 21 24 6 57 3 75 -10
54z"/>
<path d="M1122 1470 c0 -14 2 -19 5 -12 2 6 2 18 0 25 -3 6 -5 1 -5 -13z"/>
<path d="M3002 991 c2 -7 7 -12 11 -12 12 1 9 15 -3 20 -7 2 -11 -2 -8 -8z"/>
<path d="M3040 551 c0 -5 -39 -11 -87 -13 -75 -2 -95 -7 -137 -32 -36 -21 -45
-31 -35 -37 20 -12 53 -11 86 3 15 7 53 13 83 14 30 1 65 2 78 3 12 1 26 9 29
19 4 9 11 20 17 25 7 5 6 10 -4 17 -19 12 -30 13 -30 1z"/>
</g>
</svg>
